<svg width="16" height="17" viewBox="0 0 16 17" fill="none" xmlns="http://www.w3.org/2000/svg">
<path fill-rule="evenodd" clip-rule="evenodd" d="M0 3.55998C0 2.85273 0.280952 2.17446 0.781049 1.67436C1.28115 1.17426 1.95942 0.893311 2.66667 0.893311H13.3333C14.0406 0.893311 14.7189 1.17426 15.219 1.67436C15.719 2.17446 16 2.85273 16 3.55998V14.2266C16 14.9339 15.719 15.6122 15.219 16.1123C14.7189 16.6124 14.0406 16.8933 13.3333 16.8933H2.66667C1.95942 16.8933 1.28115 16.6124 0.781049 16.1123C0.280952 15.6122 0 14.9339 0 14.2266V3.55998ZM8.88889 5.33776C8.88889 5.10201 8.79524 4.87591 8.62854 4.70922C8.46184 4.54252 8.23575 4.44887 8 4.44887C7.76425 4.44887 7.53816 4.54252 7.37146 4.70922C7.20476 4.87591 7.11111 5.10201 7.11111 5.33776V12.4489C7.11111 12.6846 7.20476 12.9107 7.37146 13.0774C7.53816 13.2441 7.76425 13.3378 8 13.3378C8.23575 13.3378 8.46184 13.2441 8.62854 13.0774C8.79524 12.9107 8.88889 12.6846 8.88889 12.4489V5.33776ZM5.33333 8.00442C5.33333 7.76867 5.23968 7.54258 5.07298 7.37588C4.90628 7.20918 4.68019 7.11553 4.44444 7.11553C4.2087 7.11553 3.9826 7.20918 3.81591 7.37588C3.64921 7.54258 3.55556 7.76867 3.55556 8.00442V12.4489C3.55556 12.6846 3.64921 12.9107 3.81591 13.0774C3.9826 13.2441 4.2087 13.3378 4.44444 13.3378C4.68019 13.3378 4.90628 13.2441 5.07298 13.0774C5.23968 12.9107 5.33333 12.6846 5.33333 12.4489V8.00442ZM12.4444 10.6711C12.4444 10.4353 12.3508 10.2092 12.1841 10.0425C12.0174 9.87585 11.7913 9.7822 11.5556 9.7822C11.3198 9.7822 11.0937 9.87585 10.927 10.0425C10.7603 10.2092 10.6667 10.4353 10.6667 10.6711V12.4489C10.6667 12.6846 10.7603 12.9107 10.927 13.0774C11.0937 13.2441 11.3198 13.3378 11.5556 13.3378C11.7913 13.3378 12.0174 13.2441 12.1841 13.0774C12.3508 12.9107 12.4444 12.6846 12.4444 12.4489V10.6711Z" fill="white"/>
</svg>
