<svg width="20" height="21" viewBox="0 0 20 21" fill="none" xmlns="http://www.w3.org/2000/svg">
<path d="M6.66667 20.8936H2.22222C1 20.8936 0 19.8936 0 18.6713V3.11578C0 1.89355 1 0.893555 2.22222 0.893555H6.66667C7.88889 0.893555 8.88889 1.89355 8.88889 3.11578V18.6713C8.88889 19.8936 7.88889 20.8936 6.66667 20.8936ZM13.3333 20.8936H17.7778C19 20.8936 20 19.8936 20 18.6713V13.1158C20 11.8936 19 10.8936 17.7778 10.8936H13.3333C12.1111 10.8936 11.1111 11.8936 11.1111 13.1158V18.6713C11.1111 19.8936 12.1111 20.8936 13.3333 20.8936ZM20 6.44911V3.11578C20 1.89355 19 0.893555 17.7778 0.893555H13.3333C12.1111 0.893555 11.1111 1.89355 11.1111 3.11578V6.44911C11.1111 7.67133 12.1111 8.67133 13.3333 8.67133H17.7778C19 8.67133 20 7.67133 20 6.44911Z" fill="#CDFF65"/>
</svg>
