<svg width="17" height="17" viewBox="0 0 17 17" fill="none" xmlns="http://www.w3.org/2000/svg">
<path d="M5.17857 11.8933V11.3933L7.29855 8.62769C7.35249 8.41935 7.47117 8.24487 7.65458 8.10425C7.83798 7.96362 8.04836 7.89331 8.28571 7.89331C8.51228 7.89331 8.71726 7.95841 8.90067 8.08862C9.08408 8.21883 9.20815 8.3881 9.27288 8.59644L12.4286 12.3933V12.8933H11.9107L8.26953 10.0652L5.69643 11.8933H5.17857ZM8.28571 16.8933C7.16369 16.8933 6.09831 16.6876 5.08956 16.2761C4.08082 15.8647 3.19345 15.2891 2.42746 14.5496L3.90011 13.1433C4.47191 13.6954 5.13542 14.1251 5.89062 14.4324C6.64583 14.7397 7.4442 14.8933 8.28571 14.8933C9.40774 14.8933 10.4461 14.6251 11.4009 14.0886C12.3557 13.5522 13.111 12.823 13.6666 11.9011C14.2222 10.9792 14.5 9.97664 14.5 8.89331C14.5 7.80998 14.2222 6.80737 13.6666 5.8855C13.111 4.96362 12.3557 4.23446 11.4009 3.698C10.4461 3.16154 9.40774 2.89331 8.28571 2.89331C7.27158 2.89331 6.32757 3.11727 5.45368 3.56519C4.5798 4.0131 3.85156 4.61727 3.26897 5.37769L4.14286 6.22144C4.14286 6.40894 4.07543 6.56779 3.94057 6.698C3.80571 6.82821 3.64658 6.89331 3.46317 6.89331H0.695871C0.501674 6.89331 0.337147 6.82821 0.202288 6.698C0.0674293 6.56779 0 6.40894 0 6.22144V3.56519C0 3.3881 0.0674293 3.23446 0.202288 3.10425C0.337147 2.97404 0.501674 2.90894 0.695871 2.90894L1.79632 3.95581C2.56231 3.00789 3.51172 2.2605 4.64453 1.71362C5.77734 1.16675 6.99107 0.893311 8.28571 0.893311C9.40774 0.893311 10.4812 1.10425 11.5061 1.52612C12.5311 1.948 13.413 2.51571 14.1521 3.22925C14.8911 3.94279 15.4791 4.79435 15.916 5.78394C16.353 6.77352 16.5714 7.80998 16.5714 8.89331C16.5714 9.97664 16.353 11.0131 15.916 12.0027C15.4791 12.9923 14.8911 13.8438 14.1521 14.5574C13.413 15.2709 12.5311 15.8386 11.5061 16.2605C10.4812 16.6824 9.40774 16.8933 8.28571 16.8933Z" fill="white"/>
</svg>
