<svg width="18" height="17" viewBox="0 0 18 17" fill="none" xmlns="http://www.w3.org/2000/svg">
<path fill-rule="evenodd" clip-rule="evenodd" d="M2.86668 0.893311C2.15943 0.893311 1.48116 1.17426 0.981061 1.67436C0.480964 2.17446 0.200012 2.85273 0.200012 3.55998V14.2266C0.200012 14.9339 0.480964 15.6122 0.981061 16.1123C1.48116 16.6124 2.15943 16.8933 2.86668 16.8933H15.3111C15.7493 16.8933 16.3876 16.7689 16.9413 16.3706C17.5422 15.9378 17.9778 15.2266 17.9778 14.2266V8.00264C17.9777 7.65257 17.9086 7.30594 17.7745 6.98256C17.6405 6.65918 17.444 6.36537 17.1964 6.11791C16.9487 5.87046 16.6548 5.67419 16.3313 5.54034C16.0079 5.40648 15.6612 5.33764 15.3111 5.33776V12.0044C15.3111 12.1223 15.2643 12.2353 15.1809 12.3187C15.0976 12.402 14.9846 12.4489 14.8667 12.4489C14.7488 12.4489 14.6358 12.402 14.5524 12.3187C14.4691 12.2353 14.4222 12.1223 14.4222 12.0044V3.55998C14.4222 2.85273 14.1413 2.17446 13.6412 1.67436C13.1411 1.17426 12.4628 0.893311 11.7556 0.893311H2.86668ZM4.64446 4.44887C4.40871 4.44887 4.18262 4.54252 4.01592 4.70922C3.84922 4.87591 3.75557 5.10201 3.75557 5.33776V8.89331C3.75557 9.12906 3.84922 9.35515 4.01592 9.52185C4.18262 9.68855 4.40871 9.7822 4.64446 9.7822H9.97779C10.2135 9.7822 10.4396 9.68855 10.6063 9.52185C10.773 9.35515 10.8667 9.12906 10.8667 8.89331V5.33776C10.8667 5.10201 10.773 4.87591 10.6063 4.70922C10.4396 4.54252 10.2135 4.44887 9.97779 4.44887H4.64446ZM4.64446 11.56C4.40871 11.56 4.18262 11.6536 4.01592 11.8203C3.84922 11.987 3.75557 12.2131 3.75557 12.4489C3.75557 12.6846 3.84922 12.9107 4.01592 13.0774C4.18262 13.2441 4.40871 13.3378 4.64446 13.3378H9.97779C10.2135 13.3378 10.4396 13.2441 10.6063 13.0774C10.773 12.9107 10.8667 12.6846 10.8667 12.4489C10.8667 12.2131 10.773 11.987 10.6063 11.8203C10.4396 11.6536 10.2135 11.56 9.97779 11.56H4.64446Z" fill="white"/>
</svg>
