<svg width="22.6" height="17" viewBox="0 0 24 17" fill="none" xmlns="http://www.w3.org/2000/svg">
<path d="M5.27377 3.17902H1.59377C1.17091 3.17902 0.748053 3.54474 0.805196 4.13903L2.58805 15.5562C2.58805 15.5562 4.70234 7.14474 5.11377 5.12188C5.23948 4.51617 5.81091 4.32188 6.23377 4.32188H12.1309C12.1309 4.32188 11.3309 1.94474 11.2509 1.68188C11.1138 1.17902 10.8623 0.893311 10.3595 0.893311H6.57662C6.1652 0.893311 5.77662 1.15617 5.66234 1.62474C5.55948 2.08188 5.27377 3.17902 5.27377 3.17902ZM10.8509 3.17902H6.27948C6.27948 3.17902 6.75948 2.03617 7.27377 2.03617H9.70805C10.2566 2.03617 10.8509 3.17902 10.8509 3.17902ZM3.75377 16.0362C3.39948 16.5733 2.8852 16.8933 2.31377 16.8933H20.2909C20.9081 16.8933 21.3423 16.539 21.4681 15.9447C21.9709 13.4419 23.3881 6.29903 23.3881 6.29903C23.4681 5.7276 23.0452 5.46474 22.6795 5.46474H18.9881V3.78474C18.9881 3.60188 18.6909 3.17902 18.2338 3.17902H13.9366C13.3423 3.17902 12.9423 3.84188 12.9423 3.84188L12.1309 5.46474H7.09091C6.7252 5.46474 6.37091 5.68188 6.30234 6.03617C6.30234 6.03617 4.4852 13.6933 4.33662 14.4133C4.25662 14.8362 4.0852 15.5447 3.75377 16.0362ZM18.2795 5.46474H13.2738C13.2738 5.46474 13.9366 4.32188 14.5652 4.32188H17.1823C17.9938 4.32188 18.2795 5.46474 18.2795 5.46474Z" fill="white"/>
</svg>
