<svg width="16" height="17" viewBox="0 0 16 17" fill="none" xmlns="http://www.w3.org/2000/svg">
<path d="M7.9996 10.0888C8.66203 10.0888 9.19903 9.55184 9.19903 8.88942C9.19903 8.22699 8.66203 7.68999 7.9996 7.68999C7.33717 7.68999 6.80017 8.22699 6.80017 8.88942C6.80017 9.55184 7.33717 10.0888 7.9996 10.0888Z" fill="white"/>
<path d="M15.9078 7.54614L15.2761 5.5311C15.2079 5.29822 15.0935 5.08145 14.9397 4.89374C14.7859 4.70603 14.5958 4.55122 14.3809 4.43853C14.166 4.32585 13.9306 4.25761 13.6887 4.23787C13.4469 4.21814 13.2035 4.24732 12.9732 4.32368L12.7013 4.41163C12.4883 4.48204 12.2615 4.4999 12.0401 4.4637C11.8187 4.4275 11.6094 4.33831 11.4299 4.20373L11.3419 4.13976C11.1668 4.00573 11.0256 3.83241 10.9298 3.63379C10.834 3.43517 10.7861 3.2168 10.7902 2.99631V2.77242C10.7941 2.27027 10.5985 1.78712 10.2465 1.42906C10.079 1.2599 9.87977 1.12549 9.66022 1.03355C9.44066 0.941611 9.2051 0.893952 8.96708 0.893311H6.92805C6.43882 0.899633 5.9719 1.09897 5.62894 1.44791C5.28599 1.79686 5.09477 2.26716 5.09692 2.75642V2.94833C5.09615 3.18044 5.04331 3.40941 4.94228 3.61838C4.84126 3.82735 4.69463 4.01099 4.5132 4.15576L4.40925 4.23572C4.20882 4.38734 3.97439 4.48772 3.72634 4.52814C3.47829 4.56855 3.22412 4.54777 2.98593 4.46761C2.76716 4.3919 2.53531 4.36137 2.30441 4.37787C2.0735 4.39436 1.84835 4.45753 1.64257 4.56356C1.42831 4.6699 1.23823 4.8192 1.08416 5.00216C0.930088 5.18512 0.815318 5.39783 0.746992 5.62706L0.0913046 7.70607C-0.0607492 8.1748 -0.0217547 8.68459 0.19982 9.12475C0.421395 9.56491 0.80766 9.89988 1.27474 10.0569H1.40268C1.61814 10.1377 1.81153 10.2681 1.96714 10.4376C2.12274 10.6071 2.23619 10.8109 2.29825 11.0325L2.34623 11.1604C2.43537 11.4052 2.46518 11.6676 2.43321 11.9262C2.40124 12.1847 2.3084 12.432 2.16232 12.6477C1.86663 13.0504 1.74191 13.5535 1.81529 14.0477C1.88866 14.5419 2.1542 14.9871 2.55413 15.2865L4.20934 16.5419C4.52275 16.7697 4.90136 16.8903 5.28883 16.8857C5.39253 16.8959 5.49698 16.8959 5.60068 16.8857C5.84065 16.8392 6.06863 16.7444 6.27073 16.6069C6.47282 16.4694 6.64478 16.2922 6.77612 16.0861L6.96003 15.8222C7.08904 15.6371 7.25975 15.485 7.45837 15.378C7.65699 15.2711 7.87797 15.2123 8.10349 15.2065C8.33982 15.2007 8.57378 15.2548 8.78352 15.3639C8.99326 15.473 9.17195 15.6334 9.30292 15.8302L9.39887 15.9661C9.53521 16.169 9.71163 16.3419 9.91728 16.474C10.1229 16.6062 10.3535 16.6948 10.5947 16.7345C10.8359 16.7742 11.0826 16.7641 11.3198 16.7049C11.557 16.6456 11.7795 16.5384 11.9736 16.3899L13.5969 15.1745C13.9807 14.8764 14.2359 14.4428 14.3102 13.9626C14.3846 13.4824 14.2724 12.9919 13.9967 12.5917L13.7888 12.2879C13.6638 12.0947 13.5819 11.8768 13.5488 11.6491C13.5157 11.4215 13.5321 11.1893 13.5969 10.9685C13.6629 10.7322 13.7855 10.5155 13.9541 10.3372C14.1227 10.1588 14.3322 10.0242 14.5644 9.945L14.7243 9.88902C15.1871 9.72845 15.5693 9.39424 15.7901 8.95704C16.0109 8.51983 16.0531 8.01389 15.9078 7.54614ZM7.99954 11.6882C7.44601 11.6882 6.90492 11.524 6.44468 11.2165C5.98444 10.909 5.62573 10.4719 5.41391 9.9605C5.20208 9.44911 5.14666 8.8864 5.25465 8.34351C5.36263 7.80062 5.62918 7.30195 6.02058 6.91054C6.41198 6.51914 6.91066 6.2526 7.45354 6.14461C7.99643 6.03662 8.55915 6.09205 9.07054 6.30387C9.58193 6.51569 10.019 6.87441 10.3265 7.33464C10.6341 7.79488 10.7982 8.33598 10.7982 8.8895C10.7982 9.63175 10.5033 10.3436 9.97849 10.8685C9.45364 11.3933 8.74179 11.6882 7.99954 11.6882Z" fill="white"/>
</svg>
