<svg width="17" height="17" viewBox="0 0 17 17" fill="none" xmlns="http://www.w3.org/2000/svg">
<path d="M14.2341 4.69286H1.52509V4.18449L12.7091 3.28977V4.18449H14.2341V2.65941C14.2341 1.54101 13.3282 0.756096 12.2221 0.913689L2.01312 2.37167C0.905902 2.53028 0 3.57446 0 4.69286V14.8601C0 15.3994 0.214238 15.9166 0.595584 16.298C0.976929 16.6793 1.49415 16.8936 2.03345 16.8936H14.2341C14.7735 16.8936 15.2907 16.6793 15.672 16.298C16.0534 15.9166 16.2676 15.3994 16.2676 14.8601V6.72631C16.2676 6.187 16.0534 5.66978 15.672 5.28844C15.2907 4.90709 14.7735 4.69286 14.2341 4.69286ZM12.7091 11.816C12.5087 11.816 12.3103 11.7764 12.1253 11.6997C11.9402 11.623 11.7721 11.5105 11.6305 11.3688C11.4888 11.2271 11.3765 11.0589 11.2999 10.8738C11.2233 10.6887 11.1839 10.4903 11.184 10.2899C11.184 10.0896 11.2236 9.89121 11.3003 9.70614C11.377 9.52108 11.4895 9.35293 11.6312 9.21132C11.7729 9.0697 11.9411 8.95738 12.1262 8.88077C12.3113 8.80417 12.5097 8.76477 12.7101 8.76484C13.1147 8.76497 13.5027 8.92583 13.7887 9.21204C14.0747 9.49823 14.2353 9.88633 14.2352 10.2909C14.235 10.6956 14.0742 11.0835 13.788 11.3696C13.5018 11.6556 13.1137 11.8162 12.7091 11.816Z" fill="white"/>
</svg>
